<svg width="95" height="47" viewBox="0 0 95 47" fill="none" xmlns="http://www.w3.org/2000/svg">
<g clip-path="url(#clip0_640_364)">
<path d="M41.2383 19.126C39.5287 19.2016 38.0202 20.336 37.3414 21.9179C37.0208 22.6552 36.9454 23.3611 37.0145 24.0228C37.0522 24.4072 36.9328 24.7854 36.6562 25.0627L33.6204 28.1067C33.3501 28.3777 32.9667 28.5037 32.5833 28.4659C31.9296 28.3966 31.2256 28.4722 30.4902 28.7873C28.9126 29.4616 27.7749 30.9742 27.6995 32.6947C27.5864 35.3479 29.7863 37.5159 32.445 37.3394C34.1672 37.226 35.6757 36.0412 36.2917 34.4215C36.5683 33.6904 36.6248 32.9972 36.5431 32.3418C36.4928 31.9447 36.6122 31.5477 36.8951 31.2704L39.8053 28.3524C40.0881 28.0688 40.4778 27.9491 40.8738 27.9995C41.5337 28.0878 42.2377 28.0247 42.9668 27.7411C44.5759 27.1109 45.7513 25.5984 45.8581 23.8716C46.0216 21.212 43.8656 19.0188 41.2258 19.1323L41.2383 19.126Z" fill="#FF8502"/>
<path d="M13.4447 9.9752C11.7225 10.0823 10.214 11.2609 9.58542 12.8742C9.30258 13.6116 9.23972 14.3111 9.32772 14.9729C9.378 15.3699 9.25858 15.767 8.97573 16.0443L6.06557 18.9622C5.78273 19.2458 5.38675 19.3655 4.99705 19.3151C4.34965 19.2269 3.65196 19.2899 2.92914 19.5672C1.30749 20.1911 0.132117 21.6974 0.0126938 23.4242C-0.169584 26.09 1.99261 28.3021 4.63878 28.1887C6.35471 28.113 7.86321 26.9786 8.53575 25.3968C8.85003 24.6594 8.93174 23.9536 8.8626 23.2981C8.82488 22.9137 8.94431 22.5356 9.22087 22.2583L12.2567 19.2143C12.527 18.9433 12.9104 18.8172 13.2938 18.855C13.9538 18.9244 14.6515 18.8487 15.3869 18.5273C16.9645 17.8467 18.0959 16.3405 18.1713 14.6199C18.2845 11.973 16.0971 9.80504 13.4447 9.9752Z" fill="#FF8502"/>
<path d="M28.777 23.2067L23.3859 17.8011C23.1404 17.555 22.7424 17.555 22.497 17.8011L17.1058 23.2067C16.8603 23.4528 16.8603 23.8518 17.1058 24.0979L22.497 29.5035C22.7424 29.7496 23.1404 29.7496 23.3859 29.5035L28.777 24.0979C29.0225 23.8518 29.0225 23.4528 28.777 23.2067Z" fill="#FF8502"/>
<path d="M33.846 10.221C33.1043 9.90584 32.3941 9.83652 31.7278 9.91844C31.3381 9.96256 30.9547 9.84282 30.6782 9.56552L27.7868 6.66649C27.5103 6.38919 27.3846 5.99846 27.4349 5.60772C27.5103 4.94598 27.4411 4.23383 27.1332 3.49017C26.4669 1.8957 24.9647 0.742393 23.2425 0.654161C20.6089 0.521814 18.4404 2.70239 18.585 5.34302C18.6792 7.06353 19.8295 8.56977 21.4197 9.2252C22.1614 9.53401 22.8591 9.59703 23.519 9.5214C23.9087 9.47729 24.2984 9.59703 24.575 9.87433L27.4663 12.7734C27.7429 13.0507 27.8686 13.4414 27.8183 13.8258C27.7366 14.5002 27.812 15.2123 28.1325 15.9686C28.8051 17.5568 30.3136 18.6975 32.0295 18.7731C34.6506 18.8928 36.8002 16.7249 36.6682 14.0968C36.5802 12.3763 35.4362 10.8764 33.8523 10.2083L33.846 10.221Z" fill="#163152"/>
<path d="M24.4762 38.0834C23.7283 37.7683 23.0243 37.699 22.3581 37.7809C21.9684 37.825 21.5849 37.7053 21.3084 37.428L18.4171 34.529C18.1405 34.2517 18.0148 33.8609 18.0651 33.4765C18.1468 32.8084 18.0714 32.0963 17.7571 31.3526C17.0909 29.7645 15.5886 28.6175 13.879 28.5292C11.258 28.3969 9.10206 30.5522 9.2152 33.1803C9.29062 34.9008 10.4346 36.4133 12.0122 37.0877C12.7665 37.4091 13.483 37.4847 14.1493 37.4028C14.539 37.3587 14.9224 37.4784 15.1989 37.7557L18.0902 40.6547C18.3668 40.932 18.4925 41.3228 18.4422 41.7072C18.3605 42.3752 18.4359 43.0937 18.7565 43.85C19.429 45.4318 20.9375 46.5788 22.6535 46.6544C25.2745 46.7742 27.4241 44.6062 27.2921 41.9719C27.2041 40.2514 26.0602 38.7514 24.4762 38.0834Z" fill="#163152"/>
</g>
<defs>
<clipPath id="clip0_640_364">
<rect width="95" height="47" fill="white"/>
</clipPath>
</defs>
</svg>